:FULLY-SPECIFIED
:FORCE-ALL-JOINTS-BE-3DOF
:DEGREES
102
root -2.8402 16.5127 -36.1883 3.20016 0.17742 -2.31427
lfemur -21.1805 5.88421 -9.14861
ltibia 44.4399 -0 0
lfoot -21.6913 0.148286 -0.000329005
ltoes -8.29475 0 0
rfemur -21.7014 -5.75389 13.7992
rtibia 47.1306 -0 0
rfoot -25.57 1.49684 -4.05112e-005
rtoes -7.0007 0 0
lowerback 7.54212 1.96423 -1.6732
upperback -3.66252 2.54518 1.2269
thorax -8.23474 1.37234 1.86371
lowerneck -2.58473 -3.81011 -6.52263
upperneck 6.00843 -5.15417 5.93484
head 2.77295 -2.5509 2.93728
lclavicle -3.9524e-016 8.59744e-015 0
lhumerus -26.8728 -4.16698 89.777
lradius 24.9874 -0 0
lwrist -30.3144 0 0
lhand -28.5863 30.1744 -5.90081e-005
lfingers 7.12502 -0 0
lthumb -1.95212 60.1452 -5.6297e-005
rclavicle -3.9524e-016 8.59744e-015 0
rhumerus -32.4684 2.91191 -80.2676
rradius 30.631 -0 0
rwrist 2.59195 0 0
rhand -19.9311 -27.6367 0.000137224
rfingers 7.12502 -0 0
rthumb 6.40637 -57.5198 0.000135267
103
root -2.83708 16.5117 -36.1841 3.24953 0.176553 -2.32379
lfemur -21.2353 5.88358 -9.14978
ltibia 44.4646 -0 0
lfoot -21.7138 0.174451 -0.000212482
ltoes -8.35235 0 0
rfemur -21.7514 -5.76784 13.8029
rtibia 47.1424 -0 0
rfoot -25.5845 1.50588 -1.27142e-005
rtoes -7.0201 0 0
lowerback 7.46665 1.96516 -1.68659
upperback -3.68689 2.54621 1.22815
thorax -8.21783 1.37383 1.87425
lowerneck -2.59838 -3.81164 -6.51193
upperneck 6.0614 -5.15763 5.93068
head 2.79298 -2.55237 2.93363
lclavicle -3.9524e-016 8.59744e-015 0
lhumerus -26.8787 -4.14475 89.7757
lradius 24.9859 -0 0
lwrist -30.3207 0 0
lhand -28.5731 30.1714 -4.28754e-005
lfingers 7.12502 -0 0
lthumb -1.93945 60.1423 -4.09043e-005
rclavicle -3.9524e-016 8.59744e-015 0
rhumerus -32.4712 2.87464 -80.2553
rradius 30.6145 -0 0
rwrist 2.60657 0 0
rhand -19.914 -27.6258 8.3935e-005
rfingers 7.12502 -0 0
rthumb 6.42282 -57.5083 8.35274e-005
104
root -2.83395 16.5107 -36.1799 3.29467 0.176717 -2.33336
lfemur -21.2886 5.88326 -9.14999
ltibia 44.4923 -0 0
lfoot -21.7364 0.198521 -0.000114363
ltoes -8.40613 0 0
rfemur -21.7988 -5.78258 13.807
rtibia 47.1567 -0 0
rfoot -25.5996 1.51504 4.79766e-006
rtoes -7.03954 0 0
lowerback 7.39871 1.96592 -1.69922
upperback -3.70921 2.54699 1.22931
thorax -8.20305 1.37514 1.88415
lowerneck -2.60958 -3.813 -6.50279
upperneck 6.10795 -5.16073 5.92728
head 2.81047 -2.55371 2.93057
lclavicle -3.9524e-016 8.59744e-015 0
lhumerus -26.8827 -4.11964 89.7708
lradius 24.9838 -0 0
lwrist -30.3288 0 0
lhand -28.5612 30.1707 -2.69995e-005
lfingers 7.12502 -0 0
lthumb -1.92789 60.1417 -2.5757e-005
rclavicle -3.9524e-016 8.59744e-015 0
rhumerus -32.4747 2.84036 -80.2452
rradius 30.5999 -0 0
rwrist 2.62002 0 0
rhand -19.8982 -27.6151 4.08594e-005
rfingers 7.12502 -0 0
rthumb 6.43813 -57.4972 4.13965e-005
105
root -2.83083 16.5096 -36.1758 3.33515 0.178139 -2.34295
lfemur -21.3402 5.88343 -9.14919
ltibia 44.5237 -0 0
lfoot -21.7594 0.220019 -4.12377e-005
ltoes -8.45545 0 0
rfemur -21.8435 -5.79825 13.8115
rtibia 47.174 -0 0
rfoot -25.6155 1.5242 9.78369e-006
rtoes -7.05935 0 0
lowerback 7.33892 1.96644 -1.7109
upperback -3.7293 2.54744 1.2304
thorax -8.19055 1.37622 1.89328
lowerneck -2.61786 -3.81414 -6.49541
upperneck 6.14734 -5.16339 5.92465
head 2.82506 -2.55489 2.92815
lclavicle -3.9524e-016 8.59744e-015 0
lhumerus -26.8849 -4.0914 89.7619
lradius 24.9813 -0 0
lwrist -30.3385 0 0
lhand -28.5505 30.1724 -1.23911e-005
lfingers 7.12502 -0 0
lthumb -1.91761 60.1435 -1.18202e-005
rclavicle -3.9524e-016 8.59744e-015 0
rhumerus -32.4788 2.80963 -80.2374
rradius 30.5874 -0 0
rwrist 2.63203 0 0
rhand -19.8835 -27.6049 1.16334e-005
rfingers 7.12502 -0 0
rthumb 6.45225 -57.4866 1.23587e-005
106
root -2.8277 16.5086 -36.1716 3.37051 0.181047 -2.35253
lfemur -21.3903 5.88428 -9.14733
ltibia 44.5593 0 0
lfoot -21.783 0.238469 0
ltoes -8.49969 0 0
rfemur -21.8851 -5.815 13.8163
rtibia 47.1946 0 0
rfoot -25.6325 1.53325 0
rtoes -7.07983 0 0
lowerback 7.2879 1.96665 -1.72144
upperback -3.74694 2.54747 1.23139
thorax -8.18044 1.37702 1.90154
lowerneck -2.62272 -3.81502 -6.49001
upperneck 6.17888 -5.16558 5.92283
head 2.83645 -2.55589 2.92642
lclavicle -3.9524e-016 8.59744e-015 0
lhumerus -26.885 -4.05976 89.7487
lradius 24.9782 0 0
lwrist -30.3501 0 0
lhand -28.5414 30.177 0
lfingers 7.12502 0 0
lthumb -1.90879 60.1482 0
rclavicle -3.9524e-016 8.59744e-015 0
rhumerus -32.4836 2.78304 -80.2323
rradius 30.5776 0 0
rwrist 2.64235 0 0
rhand -19.8702 -27.5955 0
rfingers 7.12502 0 0
rthumb 6.46513 -57.4768 0
107
root -2.82712 16.5066 -36.1719 3.40087 0.185161 -2.36239
lfemur -21.4385 5.88486 -9.14412
ltibia 44.5982 -0 0
lfoot -21.8066 0.255108 2.0928e-005
ltoes -8.54051 0 0
rfemur -21.9238 -5.83283 13.8218
rtibia 47.2179 -0 0
rfoot -25.65 1.54297 -1.82286e-005
rtoes -7.09973 0 0
lowerback 7.24645 1.96685 -1.73175
upperback -3.76218 2.54737 1.2323
thorax -8.1733 1.37772 1.90936
lowerneck -2.62487 -3.81578 -6.4865
upperneck 6.20241 -5.16745 5.92221
head 2.84473 -2.55677 2.92549
lclavicle -2.08553e-014 -1.48095e-014 0
lhumerus -26.8821 -4.0246 89.731
lradius 24.9749 -0 0
lwrist -30.3637 0 0
lhand -28.5334 30.1847 1.09118e-005
lfingers 7.12502 -0 0
lthumb -1.90109 60.156 1.0417e-005
rclavicle -2.08553e-014 -1.48095e-014 0
rhumerus -32.4894 2.75932 -80.2303
rradius 30.5695 -0 0
rwrist 2.65143 0 0
rhand -19.8579 -27.5861 1.49521e-006
rfingers 7.12502 -0 0
rthumb 6.47696 -57.4671 2.07112e-007
108
root -2.82654 16.5046 -36.1722 3.42685 0.189986 -2.3728
lfemur -21.4847 5.8842 -9.13941
ltibia 44.6389 -0 0
lfoot -21.8295 0.271497 3.79597e-005
ltoes -8.57997 0 0
rfemur -21.9599 -5.85154 13.8283
rtibia 47.2428 -0 0
rfoot -25.6673 1.55414 -3.65701e-005
rtoes -7.11765 0 0
lowerback 7.21447 1.96736 -1.74279
upperback -3.77527 2.54747 1.23315
thorax -8.16942 1.37855 1.91724
lowerneck -2.62549 -3.81655 -6.48457
upperneck 6.21868 -5.16919 5.92308
head 2.8504 -2.5576 2.92539
lclavicle -2.08553e-014 -1.48095e-014 0
lhumerus -26.8754 -3.98613 89.7091
lradius 24.9719 -0 0
lwrist -30.3795 0 0
lhand -28.5261 30.1955 2.12441e-005
lfingers 7.12502 -0 0
lthumb -1.89404 60.1669 2.02925e-005
rclavicle -2.08553e-014 -1.48095e-014 0
rhumerus -32.4961 2.73676 -80.2317
rradius 30.5619 -0 0
rwrist 2.65994 0 0
rhand -19.8465 -27.5759 8.36935e-006
rfingers 7.12502 -0 0
rthumb 6.48797 -57.4566 5.71772e-006
109
root -2.82596 16.5025 -36.1725 3.44877 0.195421 -2.38369
lfemur -21.5291 5.88244 -9.13332
ltibia 44.6814 -0 0
lfoot -21.8517 0.287646 5.12248e-005
ltoes -8.61807 0 0
rfemur -21.9937 -5.87102 13.8357
rtibia 47.2693 -0 0
rfoot -25.6844 1.56662 -5.43372e-005
rtoes -7.13372 0 0
lowerback 7.19124 1.96815 -1.75443
upperback -3.78637 2.54777 1.23394
thorax -8.16851 1.37949 1.92512
lowerneck -2.62475 -3.81735 -6.48409
upperneck 6.2283 -5.17081 5.92531
head 2.85367 -2.55838 2.92603
lclavicle -2.08553e-014 -1.48095e-014 0
lhumerus -26.8653 -3.9446 89.6835
lradius 24.969 -0 0
lwrist -30.3972 0 0
lhand -28.5194 30.2091 3.05173e-005
lfingers 7.12502 -0 0
lthumb -1.8876 60.1805 2.9164e-005
rclavicle -2.08553e-014 -1.48095e-014 0
rhumerus -32.5038 2.71529 -80.2358
rradius 30.5548 -0 0
rwrist 2.66796 0 0
rhand -19.836 -27.565 1.95387e-005
rfingers 7.12502 -0 0
rthumb 6.49812 -57.4454 1.54922e-005
